<?xml version="1.0" encoding="utf-8"?>
<svg xmlns="http://www.w3.org/2000/svg"
	xmlns:xlink="http://www.w3.org/1999/xlink"
	width="14px" height="14px" viewBox="0 0 14 14">
<path fillRule="evenodd" d="M 11.35 13.71C 11.35 13.71 2.65 13.71 2.65 13.71 1.26 13.71 0.14 12.59 0.14 11.2 0.14 11.2 0.14 9.19 0.14 9.19 0.14 7.81 1.26 6.68 2.65 6.68 2.65 6.68 11.35 6.68 11.35 6.68 12.74 6.68 13.86 7.81 13.86 9.19 13.86 9.19 13.86 11.2 13.86 11.2 13.86 12.59 12.74 13.71 11.35 13.71ZM 4.48 7.57C 4.48 7.57 2.08 7.57 2.08 7.57 2.08 7.57 2.08 8.25 2.08 8.25 2.08 8.25 2.89 8.25 2.89 8.25 2.89 8.25 2.89 12.27 2.89 12.27 2.89 12.27 3.67 12.27 3.67 12.27 3.67 12.27 3.67 8.25 3.67 8.25 3.67 8.25 4.48 8.25 4.48 8.25 4.48 8.25 4.48 7.57 4.48 7.57ZM 6.76 8.8C 6.76 8.8 6.07 8.8 6.07 8.8 6.07 8.8 6.07 11.44 6.07 11.44 6 11.51 5.93 11.58 5.85 11.62 5.78 11.67 5.71 11.7 5.66 11.7 5.6 11.7 5.55 11.68 5.52 11.64 5.49 11.6 5.47 11.55 5.47 11.46 5.47 11.46 5.47 8.8 5.47 8.8 5.47 8.8 4.78 8.8 4.78 8.8 4.78 8.8 4.78 11.7 4.78 11.7 4.78 11.91 4.82 12.07 4.9 12.17 4.98 12.27 5.1 12.32 5.27 12.32 5.4 12.32 5.53 12.29 5.67 12.21 5.81 12.14 5.94 12.03 6.07 11.89 6.07 11.89 6.07 12.27 6.07 12.27 6.07 12.27 6.76 12.27 6.76 12.27 6.76 12.27 6.76 8.8 6.76 8.8ZM 9.28 9.63C 9.28 9.34 9.22 9.13 9.11 8.98 8.99 8.83 8.82 8.76 8.6 8.76 8.5 8.76 8.39 8.79 8.28 8.84 8.18 8.9 8.08 8.98 7.99 9.08 7.99 9.08 7.99 7.57 7.99 7.57 7.99 7.57 7.28 7.57 7.28 7.57 7.28 7.57 7.28 12.27 7.28 12.27 7.28 12.27 7.99 12.27 7.99 12.27 7.99 12.27 7.99 12.01 7.99 12.01 8.08 12.11 8.18 12.19 8.28 12.24 8.39 12.29 8.51 12.32 8.65 12.32 8.85 12.32 9.01 12.25 9.12 12.12 9.23 11.99 9.28 11.8 9.28 11.56 9.28 11.56 9.28 9.63 9.28 9.63ZM 11.69 11.12C 11.69 11.12 10.97 11.12 10.97 11.12 10.97 11.12 10.97 11.27 10.97 11.27 10.97 11.48 10.95 11.61 10.9 11.67 10.86 11.73 10.78 11.76 10.66 11.76 10.55 11.76 10.47 11.73 10.43 11.65 10.38 11.58 10.36 11.46 10.36 11.27 10.36 11.27 10.36 10.62 10.36 10.62 10.36 10.62 11.69 10.62 11.69 10.62 11.69 10.62 11.69 9.73 11.69 9.73 11.69 9.4 11.6 9.15 11.43 8.98 11.26 8.8 11.02 8.71 10.7 8.71 10.39 8.71 10.14 8.81 9.94 9 9.74 9.19 9.64 9.43 9.64 9.73 9.64 9.73 9.64 11.29 9.64 11.29 9.64 11.63 9.73 11.89 9.91 12.08 10.09 12.27 10.34 12.37 10.65 12.37 10.99 12.37 11.25 12.28 11.43 12.1 11.6 11.92 11.69 11.65 11.69 11.29 11.69 11.29 11.69 11.12 11.69 11.12ZM 10.36 9.73C 10.36 9.58 10.38 9.48 10.43 9.42 10.48 9.35 10.56 9.32 10.67 9.32 10.78 9.32 10.85 9.35 10.9 9.42 10.95 9.48 10.97 9.58 10.97 9.73 10.97 9.73 10.97 10.08 10.97 10.08 10.97 10.08 10.36 10.08 10.36 10.08 10.36 10.08 10.36 9.73 10.36 9.73ZM 8.32 11.77C 8.26 11.77 8.2 11.76 8.15 11.74 8.1 11.71 8.04 11.67 7.99 11.61 7.99 11.61 7.99 9.45 7.99 9.45 8.03 9.4 8.08 9.37 8.13 9.34 8.18 9.32 8.23 9.31 8.28 9.31 8.37 9.31 8.44 9.34 8.49 9.4 8.54 9.46 8.56 9.55 8.56 9.67 8.56 9.67 8.56 11.46 8.56 11.46 8.56 11.57 8.54 11.65 8.51 11.7 8.46 11.75 8.4 11.77 8.32 11.77ZM 10.1 5.05C 9.96 5.21 9.81 5.33 9.65 5.41 9.5 5.49 9.35 5.53 9.2 5.53 9.02 5.53 8.88 5.47 8.79 5.36 8.7 5.25 8.65 5.08 8.65 4.85 8.65 4.85 8.65 1.65 8.65 1.65 8.65 1.65 9.44 1.65 9.44 1.65 9.44 1.65 9.44 4.58 9.44 4.58 9.44 4.67 9.45 4.74 9.49 4.78 9.52 4.82 9.57 4.84 9.64 4.84 9.7 4.84 9.77 4.81 9.86 4.76 9.95 4.71 10.03 4.64 10.1 4.55 10.1 4.55 10.1 1.65 10.1 1.65 10.1 1.65 10.89 1.65 10.89 1.65 10.89 1.65 10.89 5.48 10.89 5.48 10.89 5.48 10.1 5.48 10.1 5.48 10.1 5.48 10.1 5.05 10.1 5.05ZM 6.88 5.57C 6.54 5.57 6.27 5.48 6.06 5.28 5.86 5.09 5.75 4.83 5.75 4.51 5.75 4.51 5.75 2.53 5.75 2.53 5.75 2.23 5.86 1.99 6.07 1.82 6.28 1.64 6.56 1.55 6.92 1.55 7.24 1.55 7.51 1.65 7.71 1.83 7.92 2.02 8.02 2.26 8.02 2.55 8.02 2.55 8.02 4.52 8.02 4.52 8.02 4.85 7.92 5.11 7.72 5.29 7.52 5.48 7.24 5.57 6.88 5.57ZM 7.23 2.5C 7.23 2.41 7.19 2.35 7.13 2.29 7.07 2.24 6.98 2.22 6.88 2.22 6.78 2.22 6.71 2.24 6.65 2.29 6.59 2.35 6.56 2.41 6.56 2.5 6.56 2.5 6.56 4.58 6.56 4.58 6.56 4.69 6.59 4.77 6.64 4.82 6.7 4.88 6.77 4.91 6.88 4.91 6.99 4.91 7.07 4.88 7.13 4.82 7.19 4.76 7.23 4.68 7.23 4.58 7.23 4.58 7.23 2.5 7.23 2.5ZM 4.67 5.48C 4.67 5.48 3.79 5.48 3.79 5.48 3.79 5.48 3.79 3.42 3.79 3.42 3.79 3.42 2.74 0.29 2.74 0.29 2.74 0.29 3.62 0.29 3.62 0.29 3.62 0.29 4.2 2.36 4.2 2.36 4.2 2.36 4.25 2.36 4.25 2.36 4.25 2.36 4.8 0.29 4.8 0.29 4.8 0.29 5.69 0.29 5.69 0.29 5.69 0.29 4.67 3.33 4.67 3.33 4.67 3.33 4.67 5.48 4.67 5.48Z" fill="rgb(41,45,59)"/></svg>