<?xml version="1.0" encoding="utf-8"?>
<svg xmlns="http://www.w3.org/2000/svg"
	xmlns:xlink="http://www.w3.org/1999/xlink"
	width="17px" height="17px" viewBox="0 0 17 17">
<path fillRule="evenodd" d="M 8.84 16.26C 8.84 16.26 8.69 16.25 8.69 16.25 4.26 16.17 0.72 12.5 0.8 8.07 0.88 3.71 4.48 0.17 8.84 0.17 8.84 0.17 8.99 0.17 8.99 0.17 13.42 0.25 16.96 3.92 16.88 8.36 16.8 12.71 13.19 16.26 8.84 16.26 8.84 16.26 8.84 16.26 8.84 16.26Z" fill="rgb(39,233,136)"/><path fillRule="evenodd" d="M 12.35 5.84C 12.35 5.84 8.07 9.97 8.07 9.97 8.07 9.97 5.39 7.19 5.39 7.19 5.27 7.07 5.07 7.06 4.95 7.18 4.82 7.3 4.82 7.5 4.94 7.62 4.94 7.62 7.84 10.63 7.84 10.63 7.9 10.69 7.97 10.75 8.06 10.72 8.14 10.72 8.22 10.69 8.28 10.64 8.28 10.64 12.79 6.29 12.79 6.29 12.91 6.17 12.91 5.97 12.79 5.85 12.67 5.72 12.48 5.72 12.35 5.84 12.35 5.84 12.35 5.84 12.35 5.84Z" fill="rgb(255,255,255)"/></svg>