<?xml version="1.0" encoding="utf-8"?>
<svg xmlns="http://www.w3.org/2000/svg"
	xmlns:xlink="http://www.w3.org/1999/xlink"
	width="35px" height="34px" viewBox="0 0 35 34">
<path fillRule="evenodd" d="M 8.94 33.22C 8.94 33.22 26.89 33.22 26.89 33.22 26.89 33.22 26.89 31.71 26.89 31.71 26.89 31.71 8.94 31.71 8.94 31.71 8.94 31.71 8.94 33.22 8.94 33.22ZM 34.15 17.23C 34.15 17.23 25.87 1.84 25.87 1.84 25.47 1.18 24.85 0.82 24.1 0.78 24.1 0.78 10.91 0.78 10.91 0.78 10.15 0.82 9.53 1.18 9.14 1.84 9.14 1.84 0.85 17.23 0.85 17.23 0.75 17.41 0.68 17.63 0.68 17.87 0.67 18.18 0.83 18.52 1.08 18.72 1.33 18.93 1.64 19 1.91 19 1.91 19 9.67 19 9.67 19 9.67 19 9.67 23.66 9.67 23.66 8.32 23.99 7.32 25.18 7.32 26.63 7.32 28.31 8.69 29.68 10.38 29.68 12.06 29.68 13.43 28.31 13.43 26.63 13.43 25.22 12.47 24.05 11.18 23.69 11.18 23.69 11.18 19 11.18 19 11.18 19 16.75 19 16.75 19 16.75 19 16.75 30.59 16.75 30.59 16.75 30.59 18.26 30.59 18.26 30.59 18.26 30.59 18.26 19 18.26 19 18.26 19 33.09 19 33.09 19 33.37 19 33.67 18.93 33.92 18.73 34.18 18.52 34.33 18.18 34.32 17.87 34.32 17.63 34.25 17.42 34.15 17.23ZM 11.92 26.63C 11.92 27.48 11.23 28.17 10.38 28.17 9.52 28.17 8.84 27.48 8.83 26.63 8.84 25.77 9.52 25.09 10.38 25.08 11.23 25.09 11.92 25.77 11.92 26.63ZM 2.43 17.49C 2.43 17.49 10.47 2.55 10.47 2.55 10.47 2.48 10.85 2.26 10.91 2.29 10.91 2.29 24.1 2.29 24.1 2.29 24.16 2.26 24.53 2.48 24.53 2.55 24.53 2.55 32.58 17.49 32.58 17.49 32.58 17.49 2.43 17.49 2.43 17.49Z" fill="rgb(39,233,137)"/></svg>